<svg width="125" height="35" viewBox="0 0 125 35" fill="none" xmlns="http://www.w3.org/2000/svg">
  <path d="M6.17361 0L0 8.23433H8.23148V2.05858L6.17361 0Z" fill="white"/>
  <path d="M26.7524 34.9958V20.5858L20.5787 26.7615L26.7524 34.9958Z" fill="white"/>
  <path d="M24.6944 4.11707L16.4629 10.2928L10.2893 4.11707V18.5271L18.5208 24.7029L41.1574 4.11707H24.6944Z" fill="white"/>
  <path d="M56.6163 26.8703H50.9994C48.6632 26.8703 46.7743 24.9808 46.7743 22.6438V12.2266C46.7743 9.88952 48.6632 8 50.9994 8H56.6163C58.9277 8 60.8414 9.88952 60.8414 12.2266V22.6438C60.8414 24.9808 58.9277 26.8703 56.6163 26.8703ZM50.9994 10.1381C49.9555 10.1381 49.1105 10.9835 49.1105 12.0277V22.8427C49.1105 23.8869 49.9555 24.7322 50.9994 24.7322H56.6163C57.6601 24.7322 58.5051 23.8869 58.5051 22.8427V12.0277C58.5051 10.9835 57.6601 10.1381 56.6163 10.1381H50.9994ZM67.6761 14.3398H70.5591V16.1299C70.5591 16.2791 70.4348 16.4034 70.2857 16.4034H67.179C66.508 16.4034 66.0358 16.9255 65.9861 17.5222V26.7709H64.0972C63.9481 26.7709 63.8238 26.6466 63.8238 26.4974V14.3398H65.7127C65.8618 14.3398 65.9861 14.4393 65.9861 14.5885V15.1354C66.2843 14.7128 66.9056 14.3398 67.6761 14.3398ZM74.7842 14.3398C74.9333 14.3398 75.0576 14.4393 75.0576 14.5885V26.7709H73.1687C73.0196 26.7709 72.8953 26.6466 72.8953 26.4974V14.3398H74.7842ZM74.7842 8.77073C74.9333 8.77073 75.0576 8.89504 75.0576 9.04421V11.0829H73.1687C73.0196 11.0829 72.8953 10.9586 72.8953 10.8094V8.77073H74.7842ZM86.2417 29.3068V25.7764C85.9931 26.2239 85.3221 26.7709 84.5268 26.7709H81.5444C79.233 26.7709 78.0649 25.13 78.0649 23.141V17.8454C78.0649 15.8564 79.3324 14.315 81.6935 14.315H87.6086C88.056 14.315 88.4039 14.6879 88.4039 15.1106V29.2074C88.4039 31.2212 86.7636 32.8373 84.7753 32.8373H78.8602V31.0472C78.8602 30.898 78.9844 30.7737 79.1336 30.7737H84.7753C85.5706 30.7737 86.2417 30.1273 86.2417 29.3068ZM80.2271 17.8454V23.2405C80.2271 24.0361 80.5502 24.7073 81.5941 24.7073H85.0238C85.67 24.6079 86.192 24.0858 86.2417 23.4394V16.652C86.2417 16.5028 86.1174 16.3785 85.9683 16.3785H81.6935C80.5502 16.3785 80.2271 17.0498 80.2271 17.8454ZM97.5003 14.3398C99.5134 14.3398 101.129 15.5581 101.129 17.8205V25.9753C101.129 26.4228 100.781 26.7709 100.334 26.7709H100.06H98.9667H94.5179C92.5048 26.7709 90.8893 25.1549 90.8893 23.141V22.3703C90.8893 20.3565 92.5048 18.7404 94.5179 18.7404H98.7181C98.8673 18.7404 98.9915 18.6161 98.9915 18.4669V17.8454C98.9915 17.0498 98.4696 16.3785 97.5003 16.3785H92.5545C92.4053 16.3785 92.2811 16.2542 92.2811 16.105V14.3398H97.5003ZM93.0515 23.1908C93.0515 24.0112 93.6977 24.6576 94.5179 24.6576H98.743C98.8921 24.6576 98.9915 24.5333 98.9915 24.3841V20.4311C98.8673 20.6548 98.6187 20.7791 98.3453 20.804H94.5179C93.6977 20.804 93.0515 21.4504 93.0515 22.2709V23.1908ZM115.519 14.3398C117.532 14.3398 119.148 15.9559 119.148 17.9697V26.7709H117.259C117.11 26.7709 116.985 26.6466 116.985 26.4974V17.8454C116.985 17.0498 116.339 16.3785 115.519 16.3785H112.288C112.537 16.5277 112.736 16.7763 112.736 17.0747V26.7709H110.847C110.698 26.7709 110.573 26.6466 110.573 26.4974V16.652C110.573 16.5028 110.449 16.3785 110.3 16.3785H106.547C106.423 16.3785 106.323 16.478 106.298 16.6023V26.4974C106.298 26.6466 106.174 26.7709 106.025 26.7709H104.136V15.9559C104.136 15.0608 104.857 14.3398 105.752 14.3398H115.519ZM124.069 14.3398C124.218 14.3398 124.342 14.4393 124.342 14.5885V26.7709H122.453C122.304 26.7709 122.18 26.6466 122.18 26.4974V14.3398H124.069ZM124.069 8.77073C124.218 8.77073 124.342 8.89504 124.342 9.04421V11.0829H122.453C122.304 11.0829 122.18 10.9586 122.18 10.8094V8.77073H124.069Z" fill="white"/>
</svg>
