<svg xmlns="http://www.w3.org/2000/svg" viewBox="0 0 387.42 287.06"><defs><style>.cls-1{fill:#fff;}</style></defs><g id="Capa_2" data-name="Capa 2"><g id="Logo"><path class="cls-1" d="M44.66,285.25a9.32,9.32,0,0,1-9.33-9.33V255.41a1.88,1.88,0,0,1,3.19-1.32,1.85,1.85,0,0,1,.53,1.32v20.51a5.6,5.6,0,0,0,5.61,5.61H55.84a5.62,5.62,0,0,0,5.6-5.61V255.41a1.86,1.86,0,0,1,.54-1.32,1.8,1.8,0,0,1,1.31-.53,1.86,1.86,0,0,1,1.88,1.85v20.51a9.32,9.32,0,0,1-9.33,9.33Z"/><path class="cls-1" d="M169.53,253.56a1.86,1.86,0,0,1,1.88,1.85,1.91,1.91,0,0,1-1.88,1.88H159.28a.81.81,0,0,0-.93.92v25.17a1.81,1.81,0,0,1-1.87,1.87,1.81,1.81,0,0,1-1.85-1.87V258.21a.81.81,0,0,0-.93-.92H143.44a1.85,1.85,0,0,1-1.34-.56,1.83,1.83,0,0,1-.53-1.32,1.81,1.81,0,0,1,1.87-1.85Z"/><path class="cls-1" d="M186.32,285.25a9.32,9.32,0,0,1-9.34-9.33V255.41a1.86,1.86,0,0,1,.54-1.32,1.86,1.86,0,0,1,3.19,1.32v20.51a5.58,5.58,0,0,0,5.61,5.61H197.5a5.63,5.63,0,0,0,5.6-5.61V255.41a1.86,1.86,0,0,1,.54-1.32,1.79,1.79,0,0,1,1.31-.53,1.86,1.86,0,0,1,1.88,1.85v20.51a9.32,9.32,0,0,1-9.33,9.33Z"/><path class="cls-1" d="M126.66,253.56a9.32,9.32,0,0,1,9.33,9.33V283.4a1.88,1.88,0,0,1-.53,1.32,1.91,1.91,0,0,1-1.34.53,1.88,1.88,0,0,1-1.32-.53,1.83,1.83,0,0,1-.53-1.32V262.89a5.58,5.58,0,0,0-5.61-5.6H115.48a5.6,5.6,0,0,0-5.6,5.6V283.4a1.84,1.84,0,0,1-.54,1.32,1.8,1.8,0,0,1-1.31.53,1.86,1.86,0,0,1-1.88-1.85V262.89a9.32,9.32,0,0,1,9.33-9.33Z"/><path class="cls-1" d="M21.88,281.57a.67.67,0,0,0-.57-.19,6,6,0,0,1-.86.06H9.3a5.55,5.55,0,0,1-5.58-5.59v-13a5.39,5.39,0,0,1,1.62-3.94,5.46,5.46,0,0,1,4-1.63H20.45a5.4,5.4,0,0,1,3.94,1.63A5.34,5.34,0,0,1,26,262.84v13a6.05,6.05,0,0,1-.1,1.06.69.69,0,0,0,.18.6l1.94,1.93a.67.67,0,0,0,1.1-.24,9.18,9.18,0,0,0,.59-3.35v-13A8.91,8.91,0,0,0,27,256.28a9,9,0,0,0-6.58-2.72H9.3a9,9,0,0,0-6.58,2.72A9,9,0,0,0,0,262.84v13a9,9,0,0,0,2.72,6.59,9,9,0,0,0,6.58,2.72H20.45a9.3,9.3,0,0,0,3.15-.53.66.66,0,0,0,.24-1.1Z"/><path class="cls-1" d="M287,257.3h26.1a1.87,1.87,0,0,0,0-3.74H287a1.87,1.87,0,0,0,0,3.74Z"/><path class="cls-1" d="M288.83,278.15v-7.6h24.23a1.87,1.87,0,0,0,0-3.74H287a1.87,1.87,0,0,0-1.87,1.87v14.7a1.87,1.87,0,0,0,1.87,1.87h26.1a1.87,1.87,0,1,0,0-3.73H288.83v-3.37Z"/><path class="cls-1" d="M383.87,253.56h-26.1a1.87,1.87,0,0,0,0,3.74H382v9.51H357.77a1.87,1.87,0,0,0-1.86,1.87v14.7a1.87,1.87,0,1,0,3.73,0V270.55h24.23a1.87,1.87,0,0,0,1.87-1.87V255.43A1.87,1.87,0,0,0,383.87,253.56Z"/><path class="cls-1" d="M21.88,281.57a.67.67,0,0,0-.57-.19,6,6,0,0,1-.86.06H9.3a5.55,5.55,0,0,1-5.58-5.59v-13a5.39,5.39,0,0,1,1.62-3.94,5.46,5.46,0,0,1,4-1.63H20.45a5.4,5.4,0,0,1,3.94,1.63A5.34,5.34,0,0,1,26,262.84v13a6.05,6.05,0,0,1-.1,1.06.69.69,0,0,0,.18.6l1.94,1.93a.67.67,0,0,0,1.1-.24,9.18,9.18,0,0,0,.59-3.35v-13A8.91,8.91,0,0,0,27,256.28a9,9,0,0,0-6.58-2.72H9.3a9,9,0,0,0-6.58,2.72A9,9,0,0,0,0,262.84v13a9,9,0,0,0,2.72,6.59,9,9,0,0,0,6.58,2.72H20.45a9.3,9.3,0,0,0,3.15-.53.66.66,0,0,0,.24-1.1Z"/><circle class="cls-1" cx="29.8" cy="285.21" r="1.86"/><path class="cls-1" d="M232.92,253.56a9.32,9.32,0,0,1,9.33,9.33V283.4a1.84,1.84,0,0,1-.54,1.32,1.86,1.86,0,0,1-3.19-1.32V262.89a5.57,5.57,0,0,0-5.6-5.6H221.73a5.62,5.62,0,0,0-5.6,5.6V283.4a1.84,1.84,0,0,1-.54,1.32,1.79,1.79,0,0,1-1.31.53,1.86,1.86,0,0,1-1.88-1.85V262.89a9.32,9.32,0,0,1,9.33-9.33Z"/><circle class="cls-1" cx="227.32" cy="262.87" r="1.86"/><path class="cls-1" d="M277.64,281.5H259.08a5.63,5.63,0,0,1-5.65-5.65V255.42a1.86,1.86,0,0,0-.54-1.32,1.83,1.83,0,0,0-1.32-.54,1.84,1.84,0,0,0-1.89,1.86v20.43a9.39,9.39,0,0,0,9.4,9.4h18.56a1.88,1.88,0,1,0,0-3.75Z"/><path class="cls-1" d="M350.16,282.6,347,275.94l-9.89-21.3a1.87,1.87,0,0,0-3.39,0l-9.79,21.1-3.26,6.86a1.87,1.87,0,0,0,3.39,1.57l2.69-5.62,8.67-18.68,8.76,18.89,2.59,5.41a1.88,1.88,0,0,0,2.48.91A1.88,1.88,0,0,0,350.16,282.6Z"/><path class="cls-1" d="M100.4,282.6l-3.16-6.66-9.89-21.3a1.85,1.85,0,0,0-1.69-1.08,1.88,1.88,0,0,0-1.7,1.08l-9.78,21.1-3.26,6.86a1.87,1.87,0,0,0,3.39,1.57L77,278.55l8.67-18.68,8.77,18.89L97,284.17a1.87,1.87,0,0,0,1.7,1.08,1.8,1.8,0,0,0,.78-.17A1.86,1.86,0,0,0,100.4,282.6Z"/><path class="cls-1" d="M147.05,188.26a4.47,4.47,0,0,0-3.82-1.26,40.28,40.28,0,0,1-5.77.42H62.53A37.35,37.35,0,0,1,25,149.87V62.36A36,36,0,0,1,35.92,35.91,36.61,36.61,0,0,1,62.53,25h74.93a36.07,36.07,0,0,1,26.45,10.93A35.78,35.78,0,0,1,175,62.36v87.51a38.12,38.12,0,0,1-.66,7.08,4.52,4.52,0,0,0,1.24,4l13,13a4.53,4.53,0,0,0,7.43-1.62,62.69,62.69,0,0,0,4-22.48V62.36A60.09,60.09,0,0,0,181.7,18.28Q163.25,0,137.46,0H62.53q-26,0-44.24,18.28A60.09,60.09,0,0,0,0,62.36v87.51q0,25.95,18.29,44.24t44.24,18.28h74.93a62.61,62.61,0,0,0,21.19-3.52,4.5,4.5,0,0,0,1.6-7.42Z"/><circle class="cls-1" cx="200.29" cy="212.72" r="12.49"/><path class="cls-1" d="M374.8,187.79H288.17a37.75,37.75,0,0,1-38-37.95V12.54A12.4,12.4,0,0,0,237.67,0a12.66,12.66,0,0,0-9.07,3.63A12.47,12.47,0,0,0,225,12.54v137.3q0,26.24,18.48,44.72T288.17,213H374.8a12.63,12.63,0,0,0,0-25.25Z"/></g></g></svg>